<svg width="160" height="34" viewBox="0 0 160 34" fill="none" xmlns="http://www.w3.org/2000/svg">
<path d="M31.0601 0.790314H28.7103C26.2751 0.790314 23.968 1.93733 22.5154 3.84903L0 33.4166H8.1175C9.52738 33.4166 10.8518 32.7369 11.7063 31.6323L22.8572 16.976V33.4166H31.1028V0.790314H31.0601Z" fill="url(#paint0_linear)"/>
<path d="M53.8295 0.706863H45.7547C44.3448 0.706863 43.0204 1.3441 42.1659 2.49111L31.0578 17.0625L42.1232 31.6338C42.9777 32.7809 44.3021 33.4181 45.712 33.4181H53.7868L41.3542 17.0625L53.8295 0.706863Z" fill="url(#paint1_linear)"/>
<path d="M31.0601 0.790314H28.7103C26.2751 0.790314 23.968 1.93733 22.5154 3.84903L0 33.4166H8.1175C9.52738 33.4166 10.8518 32.7369 11.7063 31.6323L22.8572 16.976C22.8572 16.976 31.1028 3.63662 31.1028 15.3192C31.1028 9.71156 31.0601 0.790314 31.0601 0.790314Z" fill="url(#paint2_linear)"/>
<path d="M53.8295 0.706863H45.7547C44.3448 0.706863 43.0204 1.3441 42.1659 2.49111L31.0578 17.0625L42.1232 31.6338C42.1232 31.6338 36.0137 24.1145 41.3542 17.0625C46.6946 10.0104 53.8295 0.706863 53.8295 0.706863Z" fill="url(#paint3_linear)"/>
<path d="M147.781 11.3706H150.43V5.16826H154.959V9.96874C154.959 10.7334 155.599 11.3706 156.326 11.3706H159.786V15.1516H154.959V23.8179C154.959 26.4518 155.77 27.174 157.65 27.174C158.419 27.174 159.316 27.0041 160 26.8341V30.5301C158.975 30.8275 157.693 30.9549 156.539 30.9549C151.712 30.9549 150.43 28.0236 150.43 24.0728V15.1516H147.781V11.3706Z" fill="#FF4E83"/>
<path d="M85.0642 30.9553H80.5783V28.4489H80.4501C79.0829 30.1057 76.9895 31.2952 73.7425 31.2952C69.3419 31.2952 64.6851 27.6842 64.6851 21.1419C64.6851 15.4493 68.7438 11.1161 74.0415 11.1161C77.3313 11.1161 79.2965 12.4756 80.4501 14.0474H80.5355V11.4135H84.9788V30.9553H85.0642ZM74.9815 27.0045C77.9721 27.0045 80.7064 24.6679 80.7064 21.3119C80.7064 17.7858 78.1857 15.4493 75.0242 15.4493C71.0509 15.4493 69.1283 18.3381 69.1283 21.1844C69.1283 24.1157 71.0082 27.0045 74.9815 27.0045Z" fill="#FF4E83"/>
<path d="M112.92 15.1515C112.364 15.0665 111.638 14.9391 110.613 14.9391C108.391 14.9816 105.657 16.9782 105.657 21.0565V30.9549H101.085V11.4131H105.571V14.1744H105.7C106.597 12.5176 108.562 10.7758 111.168 10.7758C111.894 10.7758 112.407 10.8183 112.877 10.9033V15.1515H112.92Z" fill="#FF4E83"/>
<path d="M90.8328 11.4143H95.4042V30.9561H90.8328V11.4143Z" fill="#FF4E83"/>
<path d="M90.4908 5.42349C90.4908 4.70129 90.7471 4.10654 91.2598 3.59675C91.7725 3.08697 92.3706 2.83208 93.0969 2.83208C93.8232 2.83208 94.464 3.08697 94.9767 3.59675C95.4894 4.10654 95.7458 4.70129 95.7458 5.42349C95.7458 6.14568 95.4894 6.78291 94.9767 7.2927C94.464 7.80248 93.8659 8.05738 93.1396 8.05738C92.4133 8.05738 91.7725 7.80248 91.2598 7.2927C90.7471 6.8254 90.4908 6.18816 90.4908 5.42349Z" fill="#FF4E83"/>
<path d="M139.342 11.5656H143.914V31.1074H139.342V11.5656Z" fill="#FF4E83"/>
<path d="M139 5.57484C139 4.85264 139.256 4.25789 139.769 3.74811C140.282 3.23832 140.88 2.98343 141.606 2.98343C142.332 2.98343 142.973 3.23832 143.486 3.74811C143.999 4.25789 144.255 4.85264 144.255 5.57484C144.255 6.29704 143.999 6.93427 143.486 7.44405C142.973 7.95384 142.375 8.20873 141.649 8.20873C140.923 8.20873 140.282 7.95384 139.769 7.44405C139.256 6.97675 139 6.33952 139 5.57484Z" fill="#FF4E83"/>
<path d="M121.337 30.9552H116.765V2.83208H121.337V30.9552Z" fill="#FF4E83"/>
<path d="M128.897 30.0215L121.292 19.5709L128.469 12.1365C128.897 11.6692 129.495 11.4143 130.136 11.4143H135.092L127.23 19.5709L135.519 30.9561H130.734C130.05 30.9561 129.324 30.6162 128.897 30.0215Z" fill="#FF4E83"/>
<defs>
<linearGradient id="paint0_linear" x1="11.1904" y1="9.64979" x2="26.3873" y2="36.1213" gradientUnits="userSpaceOnUse">
<stop offset="0.00244391" stop-color="#EC0047"/>
<stop offset="0.1978" stop-color="#EE074C"/>
<stop offset="0.4802" stop-color="#F21A5B"/>
<stop offset="0.8139" stop-color="#FA3973"/>
<stop offset="1" stop-color="#FF4E83"/>
</linearGradient>
<linearGradient id="paint1_linear" x1="38.1535" y1="6.43898" x2="59.4341" y2="27.8406" gradientUnits="userSpaceOnUse">
<stop stop-color="#EC0047"/>
<stop offset="0.2231" stop-color="#ED044A"/>
<stop offset="0.4517" stop-color="#F01054"/>
<stop offset="0.6829" stop-color="#F52563"/>
<stop offset="0.9145" stop-color="#FC4179"/>
<stop offset="1" stop-color="#FF4E83"/>
</linearGradient>
<linearGradient id="paint2_linear" x1="1.37404" y1="34.8213" x2="33.1478" y2="2.86693" gradientUnits="userSpaceOnUse">
<stop stop-color="#FF4E83"/>
<stop offset="0.1521" stop-color="#FF537F"/>
<stop offset="0.3364" stop-color="#FF6274"/>
<stop offset="0.5372" stop-color="#FF7A61"/>
<stop offset="0.7499" stop-color="#FF9D47"/>
<stop offset="0.9698" stop-color="#FFC826"/>
<stop offset="1" stop-color="#FFCF21"/>
</linearGradient>
<linearGradient id="paint3_linear" x1="42.4391" y1="31.6365" x2="42.4391" y2="0.72513" gradientUnits="userSpaceOnUse">
<stop stop-color="#FF4E83"/>
<stop offset="0.1646" stop-color="#FF5280"/>
<stop offset="0.3437" stop-color="#FF5F76"/>
<stop offset="0.5296" stop-color="#FF7565"/>
<stop offset="0.7201" stop-color="#FF944E"/>
<stop offset="0.9124" stop-color="#FFBA30"/>
<stop offset="1" stop-color="#FFCF21"/>
</linearGradient>
</defs>
</svg>
